<svg width="128" height="128" viewBox="0 0 128 128" fill="none" xmlns="http://www.w3.org/2000/svg">
<path d="M79.0588 64C79.0588 15.8118 109.176 3.76471 124.235 3.76471" stroke="#3A3B3C" stroke-width="3.76471"/>
<path d="M79.0588 64C79.0588 15.8118 28.8628 3.76471 3.76472 3.76471" stroke="#3A3B3C" stroke-width="3.76471"/>
<path d="M64 79.0588C112.188 79.0588 124.235 109.176 124.235 124.235" stroke="#3A3B3C" stroke-width="3.76471"/>
<path d="M64 79.0588C112.188 79.0588 124.235 28.8628 124.235 3.76472" stroke="#3A3B3C" stroke-width="3.76471"/>
<path d="M48.9412 64C48.9412 112.188 18.8235 124.235 3.76471 124.235" stroke="#3A3B3C" stroke-width="3.76471"/>
<path d="M48.9412 64C48.9412 112.188 99.1372 124.235 124.235 124.235" stroke="#3A3B3C" stroke-width="3.76471"/>
<path d="M64 48.9412C15.8118 48.9412 3.76471 18.8235 3.76471 3.76471" stroke="#3A3B3C" stroke-width="3.76471"/>
<path d="M64 48.9412C15.8118 48.9412 3.76471 99.1372 3.76471 124.235" stroke="#3A3B3C" stroke-width="3.76471"/>
<path d="M49 64C49 59 52 49 64 49C69 49 79 52 79 64C79 69 76 79 64 79C59 79 49 76 49 64Z" stroke="#FF0040" stroke-width="4"/>
<path d="M4 4C100.376 4 124.471 84.3137 124.471 124.471C28.0941 124.471 4 44.1569 4 4ZM124.471 4C124.471 100.376 44.1569 124.471 4 124.471C4 28.0941 84.3137 4 124.471 4Z" stroke="#242526" stroke-width="5.64706"/>
</svg>
